<?xml version="1.0"?>
<svg xmlns="http://www.w3.org/2000/svg" xmlns:xlink="http://www.w3.org/1999/xlink" xmlns:svgjs="http://svgjs.com/svgjs" version="1.1" width="512" height="512" x="0" y="0" viewBox="0 0 192 192" style="enable-background:new 0 0 512 512" xml:space="preserve" class=""><g><circle xmlns="http://www.w3.org/2000/svg" cx="96" cy="88" r="16" fill="#171343" data-original="#000000" style="" class=""/><path xmlns="http://www.w3.org/2000/svg" d="m160 136v-96h-128v96zm-104-56h9.013a31.826 31.826 0 0 1 3.431-8.242l-6.385-6.385 11.314-11.314 6.385 6.385a31.826 31.826 0 0 1 8.242-3.431v-9.013h16v9.013a31.826 31.826 0 0 1 8.242 3.431l6.385-6.385 11.314 11.314-6.385 6.385a31.826 31.826 0 0 1 3.431 8.242h9.013v16h-9.013a31.826 31.826 0 0 1 -3.431 8.242l6.385 6.385-11.314 11.314-6.385-6.385a31.826 31.826 0 0 1 -8.242 3.431v9.013h-16v-9.013a31.826 31.826 0 0 1 -8.242-3.431l-6.385 6.385-11.314-11.314 6.385-6.385a31.826 31.826 0 0 1 -3.431-8.242h-9.013z" fill="#171343" data-original="#000000" style="" class=""/><path xmlns="http://www.w3.org/2000/svg" d="m24 32h144v104h8v-104a8 8 0 0 0 -8-8h-144a8 8 0 0 0 -8 8v104h8z" fill="#171343" data-original="#000000" style="" class=""/><path xmlns="http://www.w3.org/2000/svg" d="m0 144h192a0 0 0 0 1 0 0v8a8 8 0 0 1 -8 8h-176a8 8 0 0 1 -8-8v-8a0 0 0 0 1 0 0z" fill="#171343" data-original="#000000" style="" class=""/></g></svg>
