<?xml version="1.0"?>
<svg xmlns="http://www.w3.org/2000/svg" xmlns:xlink="http://www.w3.org/1999/xlink" xmlns:svgjs="http://svgjs.com/svgjs" version="1.1" width="512" height="512" x="0" y="0" viewBox="0 0 464 464" style="enable-background:new 0 0 512 512" xml:space="preserve" class=""><g><path xmlns="http://www.w3.org/2000/svg" d="m272 296c0 4.40625 3.59375 8 8 8h8v-8c0-4.40625-3.59375-8-8-8s-8 3.59375-8 8zm0 0" fill="#171343" data-original="#000000" style="" class=""/><path xmlns="http://www.w3.org/2000/svg" d="m304 320h16v64h-16zm0 0" fill="#171343" data-original="#000000" style="" class=""/><path xmlns="http://www.w3.org/2000/svg" d="m193.335938 267.078125c-.847657-3.566406-1.335938-7.261719-1.335938-11.078125 0-20.703125 13.152344-38.625 32.136719-45.246094-.058594-.914062-.136719-1.824218-.136719-2.753906 0-26.472656 21.527344-48 48-48 5.625 0 10.984375 1.039062 16 2.824219v-138.824219c0-9.039062 3.128906-17.296875 8.207031-24h-208.207031c-13.230469 0-24 10.769531-24 24v264h114.824219c2.871093-8.097656 7.808593-15.359375 14.511719-20.921875zm-113.335938-251.078125h192v112h-192zm64 240h-64v-16h64zm32 0h-16v-16h16zm0-32h-96v-16h96zm0-32h-96v-16h96zm0-32h-96v-16h96zm0 0" fill="#171343" data-original="#000000" style="" class=""/><path xmlns="http://www.w3.org/2000/svg" d="m96 32h160v80h-160zm0 0" fill="#171343" data-original="#000000" style="" class=""/><path xmlns="http://www.w3.org/2000/svg" d="m352 296c0-4.40625-3.59375-8-8-8s-8 3.59375-8 8v8h8c4.40625 0 8-3.59375 8-8zm0 0" fill="#171343" data-original="#000000" style="" class=""/><path xmlns="http://www.w3.org/2000/svg" d="m384 208c0-17.648438-14.351562-32-32-32s-32 14.351562-32 32h-16c0-17.648438-14.351562-32-32-32s-32 14.351562-32 32 14.351562 32 32 32v16c-19.902344 0-37.015625-12.183594-44.28125-29.480469-11.71875 4.855469-19.71875 16.3125-19.71875 29.480469 0 17.648438 14.351562 32 32 32v16c-16.585938 0-31.222656-8.457031-39.847656-21.273438-4.96875 5.570313-7.929688 12.730469-8.144532 20.371094-.289062 10.453125 5.527344 20.703125 15.550782 27.429688 9.800781 6.550781 17.65625 5.9375 23.402344 4.65625l8.160156-1.816406 1.453125 8.234374c1.839843 10.4375 8.816406 19.261719 18.648437 23.597657l4.777344 2.105469v16.695312h24v-64h-8c-13.230469 0-24-10.769531-24-24s10.769531-24 24-24 24 10.769531 24 24v8h16v-8c0-13.230469 10.769531-24 24-24s24 10.769531 24 24-10.769531 24-24 24h-8v64h24v-16.695312l4.769531-2.105469c9.832031-4.335938 16.804688-13.160157 18.644531-23.597657l1.457032-8.234374 8.160156 1.816406c5.738281 1.28125 13.609375 1.90625 23.402344-4.65625 10.023437-6.71875 15.839844-16.976563 15.550781-27.429688-.207031-7.640625-3.167969-14.800781-8.136719-20.371094-8.632812 12.816407-23.273437 21.273438-39.847656 21.273438v-16c17.648438 0 32-14.351562 32-32 0-13.167969-8-24.625-19.71875-29.488281-7.265625 17.304687-24.378906 29.488281-44.28125 29.488281v-16c17.640625 0 32-14.351562 32-32zm0 0" fill="#171343" data-original="#000000" style="" class=""/><path xmlns="http://www.w3.org/2000/svg" d="m352 24c0-13.230469-10.769531-24-24-24s-24 10.769531-24 24v104h48zm0 0" fill="#171343" data-original="#000000" style="" class=""/><path xmlns="http://www.w3.org/2000/svg" d="m48 288v-197.3125c-31.089844 40.390625-48 89.816406-48 141.3125 0 18.976562 2.40625 37.761719 6.929688 56zm0 0" fill="#171343" data-original="#000000" style="" class=""/><path xmlns="http://www.w3.org/2000/svg" d="m226.800781 351.894531c-9.90625.640625-19.152343-2.054687-28.144531-8.078125-14.207031-9.519531-22.527344-24.320312-22.585938-39.816406h-176.070312v24c0 13.230469 10.769531 24 24 24h202.847656c-.015625-.039062-.039062-.070312-.046875-.105469zm0 0" fill="#171343" data-original="#000000" style="" class=""/><path xmlns="http://www.w3.org/2000/svg" d="m248 432c-13.230469 0-24-10.769531-24-24s10.769531-24 24-24v-6.59375c-4.351562-2.519531-8.128906-5.765625-11.433594-9.40625h-192.550781c43.640625 60.375 112.855469 96 187.984375 96 11.929688 0 23.648438-.910156 35.089844-2.65625-8.128906-8.070312-14.066406-18.160156-16.960938-29.34375zm0 0" fill="#171343" data-original="#000000" style="" class=""/><path xmlns="http://www.w3.org/2000/svg" d="m287.640625 457.207031c21.976563-5.429687 42.703125-14 61.726563-25.207031h-82.480469c3.730469 10.488281 11.042969 19.433594 20.753906 25.207031zm0 0" fill="#171343" data-original="#000000" style="" class=""/><path xmlns="http://www.w3.org/2000/svg" d="m376 400h-128c-4.40625 0-8 3.59375-8 8s3.59375 8 8 8h125.070312c3.683594-2.824219 7.265626-5.769531 10.761719-8.808594-.425781-4.015625-3.710937-7.191406-7.832031-7.191406zm0 0" fill="#171343" data-original="#000000" style="" class=""/><path xmlns="http://www.w3.org/2000/svg" d="m368 44.015625v99.984375h-64v28.296875c3.03125 2.71875 5.734375 5.792969 8 9.191406 8.601562-12.945312 23.320312-21.488281 40-21.488281 26.472656 0 48 21.527344 48 48 0 .929688-.089844 1.839844-.136719 2.753906 18.984375 6.613282 32.136719 24.542969 32.136719 45.246094 0 3.816406-.496094 7.511719-1.34375 11.070312 10.558594 8.769532 16.945312 21.664063 17.320312 35.578126.449219 15.976562-8.015624 31.367187-22.640624 41.160156-8.992188 6.023437-18.214844 8.726562-28.144532 8.078125-3.765625 10.707031-11.261718 19.753906-21.199218 25.511719v6.601562c8.648437 0 16.175781 4.640625 20.398437 11.519531 41.761719-41.976562 67.609375-99.785156 67.609375-163.519531 0-75.128906-35.625-144.351562-96-187.984375zm0 0" fill="#171343" data-original="#000000" style="" class=""/></g></svg>
