<?xml version="1.0"?>
<svg xmlns="http://www.w3.org/2000/svg" xmlns:xlink="http://www.w3.org/1999/xlink" xmlns:svgjs="http://svgjs.com/svgjs" version="1.1" width="512" height="512" x="0" y="0" viewBox="0 0 64 64" style="enable-background:new 0 0 512 512" xml:space="preserve" class=""><g><g xmlns="http://www.w3.org/2000/svg"><path d="m56 41c-1.105 0-2 .895-2 2v-1c0-1.105-.895-2-2-2s-2 .895-2 2v-1c0-1.105-.895-2-2-2s-2 .895-2 2v-9c0-1.105-.895-2-2-2s-2 .895-2 2v14.382c0-2.42-1.962-4.382-4.382-4.382-.894 0-1.618.725-1.618 1.618 0 .251.058.499.171.724l1.196 2.391c.416.834.633 1.752.633 2.684v2.582c-.001 5.523 4.476 10.001 10 10.001 5.523 0 10-4.477 10-10v-9c0-1.104-.895-2-2-2z" fill="#171343" data-original="#000000" style="" class=""/><path d="m36 23c-1.654 0-3-1.346-3-3v-8c0-.551-.449-1-1-1s-1 .449-1 1v8c0 1.654-1.346 3-3 3s-3-1.346-3-3v-5c0-.551-.449-1-1-1s-1 .449-1 1v3c0 1.654-1.346 3-3 3s-3-1.346-3-3v-6c0-.551-.449-1-1-1s-1 .449-1 1v10c0 1.654-1.346 3-3 3s-3-1.346-3-3v-1c0-.551-.449-1-1-1h-1v7h30.001v-4z" fill="#171343" data-original="#000000" style="" class=""/><path d="m11 21v1c0 .551.449 1 1 1s1-.449 1-1v-10c0-1.654 1.346-3 3-3s3 1.346 3 3v6c0 .551.449 1 1 1s1-.449 1-1v-3c0-1.654 1.346-3 3-3s3 1.346 3 3v5c0 .551.449 1 1 1s1-.449 1-1v-8c0-1.654 1.346-3 3-3s3 1.346 3 3v8c0 .551.449 1 1 1h1.001l-.001-14h-30v11h1c1.654 0 3 1.346 3 3z" fill="#171343" data-original="#000000" style="" class=""/><path d="m58 3h-52c-1.654 0-3 1.346-3 3v40c0 1.654 1.346 3 3 3h29.951c-.051-.475-.16-.945-.374-1.373l-1.195-2.391c-.25-.501-.382-1.06-.382-1.617 0-1.995 1.623-3.619 3.618-3.619.841 0 1.646.164 2.382.461v-8.461c0-2.206 1.794-4 4-4s4 1.794 4 4v5c1.104 0 2.104.449 2.829 1.175.371-.114.764-.175 1.171-.175 1.104 0 2.104.449 2.829 1.175.371-.114.764-.175 1.171-.175 2.206.001 4 1.795 4 4v5.22c.609-.549 1-1.337 1-2.22v-40c0-1.654-1.346-3-3-3zm-49 43c-1.657 0-3-1.343-3-3s1.343-3 3-3 3 1.343 3 3-1.343 3-3 3zm-3-12c0-1.105.895-2 2-2s2 .895 2 2-.895 2-2 2-2-.895-2-2zm8 0c0-1.105.895-2 2-2s2 .895 2 2-.895 2-2 2-2-.895-2-2zm5 12c-1.657 0-3-1.343-3-3s1.343-3 3-3 3 1.343 3 3-1.343 3-3 3zm5-10c-1.105 0-2-.895-2-2s.895-2 2-2 2 .895 2 2-.895 2-2 2zm5 10c-1.657 0-3-1.343-3-3s1.343-3 3-3 3 1.343 3 3-1.343 3-3 3zm3-10c-1.105 0-2-.895-2-2s.895-2 2-2 2 .895 2 2-.895 2-2 2zm7-9c0 1.103-.897 2-2 2h-30c-1.103 0-2-.897-2-2v-20c0-1.103.897-2 2-2h30c1.103 0 2 .897 2 2zm6-2.184v2.184h-2v-2.184c-1.161-.414-2-1.514-2-2.816s.839-2.402 2-2.816v-14.184h2v14.184c1.161.414 2 1.514 2 2.816s-.839 2.402-2 2.816zm6-10v12.184h-2v-12.184c-1.161-.414-2-1.514-2-2.816s.839-2.402 2-2.816v-4.184h2v4.184c1.161.414 2 1.514 2 2.816s-.839 2.402-2 2.816zm6 8v4.184h-2v-4.184c-1.161-.414-2-1.514-2-2.816s.839-2.402 2-2.816v-12.184h2v12.184c1.161.414 2 1.514 2 2.816s-.839 2.402-2 2.816z" fill="#171343" data-original="#000000" style="" class=""/></g></g></svg>
