<?xml version="1.0"?>
<svg xmlns="http://www.w3.org/2000/svg" xmlns:xlink="http://www.w3.org/1999/xlink" xmlns:svgjs="http://svgjs.com/svgjs" version="1.1" width="512" height="512" x="0" y="0" viewBox="0 0 512 512" style="enable-background:new 0 0 512 512" xml:space="preserve"><g><g xmlns="http://www.w3.org/2000/svg"><path d="m80 288h16v16h-16z" fill="#171343" data-original="#000000" style=""/><path d="m224.572 261.029a8 8 0 0 1 7.428-5.029h48a8 8 0 0 1 7.428 5.029l13.989 34.976h28.489l-1.892-31.526a8.018 8.018 0 0 1 .131-1.993l-45.758-126.486h-52.768l-57.719 160.005h38.683zm7.736-39.227 16-56a8 8 0 0 1 15.384 0l16 56a8 8 0 0 1 -7.692 10.198h-32a8 8 0 0 1 -7.692-10.2z" fill="#171343" data-original="#000000" style=""/><path d="m256 197.121-5.394 18.879h10.788z" fill="#171343" data-original="#000000" style=""/><path d="m400 296.67v-16.67a8 8 0 0 1 8-8h8v-112h-8a8 8 0 0 1 -8-8v-8h-97.7l41.9 115.826z" fill="#171343" data-original="#000000" style=""/><path d="m80 128h16v16h-16z" fill="#171343" data-original="#000000" style=""/><path d="m416 288h16v16h-16z" fill="#171343" data-original="#000000" style=""/><path d="m335.8 451.031-6.973-2.324a48.254 48.254 0 0 1 -31.077-32.707h-83.5a48.255 48.255 0 0 1 -31.071 32.707l-6.974 2.324a11.984 11.984 0 0 0 -8.205 11.384v1.585h176v-1.585a11.984 11.984 0 0 0 -8.2-11.384z" fill="#171343" data-original="#000000" style=""/><path d="m348.417 376.446a8 8 0 0 1 -9.8 1.726 8.269 8.269 0 0 1 -4.187-6.833l-1.163-19.339h-301.267v38a10 10 0 0 0 10 10h428a10 10 0 0 0 10-10v-38h-109.906zm-68.417 7.554h-48v-16h48z" fill="#171343" data-original="#000000" style=""/><path d="m157.778 288 51.946-144h-97.724v8a8 8 0 0 1 -8 8h-8v112h8a8 8 0 0 1 8 8v8z" fill="#171343" data-original="#000000" style=""/><path d="m470 48h-428a10 10 0 0 0 -10 10v22h448v-22a10 10 0 0 0 -10-10zm-406 24h-16v-16h16zm32 0h-16v-16h16zm32 0h-16v-16h16zm304 0h-16v-16h16zm32 0h-16v-16h16z" fill="#171343" data-original="#000000" style=""/><path d="m416 128h16v16h-16z" fill="#171343" data-original="#000000" style=""/><path d="m32 336h300.307l-1.44-24h-34.867a8 8 0 0 1 -7.428-5.029l-13.989-34.971h-37.166l-13.989 34.976a8 8 0 0 1 -7.428 5.029h-55.491a8 8 0 0 1 -8-8h-40.509v8a8 8 0 0 1 -8 8h-32a8 8 0 0 1 -8-8v-32.005a8 8 0 0 1 8-8h8v-112h-8a8 8 0 0 1 -8-8v-32a8 8 0 0 1 8-8h32a8 8 0 0 1 8 8v8h103.5l.98-2.715a8 8 0 0 1 7.52-5.285h64a8 8 0 0 1 7.523 5.278l.985 2.722h103.492v-8a8 8 0 0 1 8-8h32a8 8 0 0 1 8 8v32a8 8 0 0 1 -8 8h-8v112h8a8 8 0 0 1 8 8v32a8 8 0 0 1 -8 8h-7.072a8 8 0 0 1 -5.755 10.976l-24.551 5.024h77.378v-240h-448z" fill="#171343" data-original="#000000" style=""/><path d="m344.944 279.492 4.315 71.888 20.755-23.4a8 8 0 0 1 4.382-2.53l30.235-6.188a8.017 8.017 0 0 1 -2.873-2.262z" fill="#171343" data-original="#000000" style=""/></g></g></svg>
