<?xml version="1.0"?>
<svg xmlns="http://www.w3.org/2000/svg" xmlns:xlink="http://www.w3.org/1999/xlink" xmlns:svgjs="http://svgjs.com/svgjs" version="1.1" width="512" height="512" x="0" y="0" viewBox="0 0 512 512" style="enable-background:new 0 0 512 512" xml:space="preserve" class=""><g><g xmlns="http://www.w3.org/2000/svg"><path d="m0 392h150v120h-150z" fill="#042463" data-original="#000000" style="" class=""/><path d="m181 392h150v120h-150z" fill="#042463" data-original="#000000" style="" class=""/><path d="m362 392h150v120h-150z" fill="#042463" data-original="#000000" style="" class=""/><path d="m90 332h151v30h30v-30h151v30h30v-60h-181v-58.221h93.311c47.798 0 86.689-38.877 86.689-86.675 0-39.111-25.649-72.598-62.344-83.232-11.308-42.773-50.815-73.872-95.83-73.872-30.352 0-58.506 13.623-77.183 36.929-39.595-5.596-78.765 19.907-90.41 57.437-36.284 5.273-64.233 36.591-64.233 74.311 0 41.411 33.691 75.103 75.103 75.103h104.897v58.22h-181v60h30z" fill="#042463" data-original="#000000" style="" class=""/></g></g></svg>
