<?xml version="1.0"?>
<svg xmlns="http://www.w3.org/2000/svg" xmlns:xlink="http://www.w3.org/1999/xlink" xmlns:svgjs="http://svgjs.com/svgjs" version="1.1" width="512" height="512" x="0" y="0" viewBox="0 0 512 512" style="enable-background:new 0 0 512 512" xml:space="preserve" class=""><g><g xmlns="http://www.w3.org/2000/svg"><path d="m386.48 413.467h-42.426l94.139 94.139c5.857 5.858 15.355 5.858 21.213 0s5.858-15.355 0-21.213z" fill="#918a76" data-original="#000000" style="" class=""/><path d="m52.594 486.393c-5.858 5.858-5.858 15.355 0 21.213 5.857 5.858 15.355 5.858 21.213 0l94.139-94.139h-42.426z" fill="#918a76" data-original="#000000" style="" class=""/><path d="m497 0h-482c-8.284 0-15 6.716-15 15v353.467c0 8.284 6.716 15 15 15h482c8.284 0 15-6.716 15-15v-353.467c0-8.284-6.716-15-15-15zm-407.127 154.14c-5.857 5.858-15.355 5.858-21.213 0s-5.858-15.355 0-21.213l21.527-21.527-21.527-21.527c-5.858-5.858-5.858-15.355 0-21.213 5.857-5.858 15.355-5.858 21.213 0l21.527 21.527 21.527-21.527c5.857-5.858 15.355-5.858 21.213 0s5.858 15.355 0 21.213l-21.527 21.527 21.527 21.527c5.858 5.858 5.858 15.355 0 21.213-5.857 5.858-15.355 5.858-21.213 0l-21.527-21.527zm127.984 96.949c3.157 6.323 4.943 13.444 4.943 20.978 0 25.989-21.144 47.133-47.133 47.133s-47.133-21.144-47.133-47.133c0-25.99 21.144-47.134 47.133-47.134 7.534 0 14.655 1.786 20.978 4.943l135.61-135.609h-28.055c-8.284 0-15-6.716-15-15s6.716-15 15-15h64.267c8.284 0 15 6.716 15 15v64.267c0 8.284-6.716 15-15 15s-15-6.716-15-15v-28.054zm225.483 42.504c5.858 5.858 5.858 15.355 0 21.213-5.857 5.858-15.355 5.858-21.213 0l-21.527-21.527-21.527 21.527c-5.857 5.858-15.355 5.858-21.213 0s-5.858-15.355 0-21.213l21.527-21.527-21.527-21.526c-5.858-5.858-5.858-15.355 0-21.213 5.857-5.858 15.355-5.858 21.213 0l21.527 21.527 21.527-21.527c5.857-5.858 15.355-5.858 21.213 0s5.858 15.355 0 21.213l-21.527 21.527z" fill="#918a76" data-original="#000000" style="" class=""/><path d="m175.667 254.933c-9.447 0-17.133 7.686-17.133 17.134 0 9.447 7.686 17.133 17.133 17.133s17.133-7.686 17.133-17.133c0-9.448-7.686-17.134-17.133-17.134z" fill="#918a76" data-original="#000000" style="" class=""/></g></g></svg>
